<svg width="28" height="25" viewBox="0 0 28 25" fill="none" xmlns="http://www.w3.org/2000/svg">
<g id="ic:baseline-phone">
<path id="Vector" d="M7.65229 11.2396C9.31684 14.1875 11.9986 16.5937 15.2699 18.1042L17.813 15.8125C18.1251 15.5312 18.5875 15.4375 18.9921 15.5625C20.2867 15.9479 21.6854 16.1562 23.1188 16.1562C23.7546 16.1562 24.2747 16.625 24.2747 17.1979V20.8333C24.2747 21.4062 23.7546 21.875 23.1188 21.875C12.2645 21.875 3.46777 13.9479 3.46777 4.16667C3.46777 3.59375 3.98795 3.125 4.62372 3.125H8.66951C9.30528 3.125 9.82546 3.59375 9.82546 4.16667C9.82546 5.46875 10.0566 6.71875 10.4843 7.88542C10.6115 8.25 10.519 8.65625 10.1954 8.94792L7.65229 11.2396Z" fill="#4F59C0"/>
</g>
</svg>
