<svg width="28" height="25" viewBox="0 0 28 25" fill="none" xmlns="http://www.w3.org/2000/svg">
<g id="mdi:address-marker">
<path id="Vector" d="M13.8714 11.9791C13.1049 11.9791 12.3699 11.7048 11.8279 11.2164C11.286 10.728 10.9815 10.0656 10.9815 9.37498C10.9815 8.68431 11.286 8.02193 11.8279 7.53356C12.3699 7.04518 13.1049 6.77081 13.8714 6.77081C14.6378 6.77081 15.3729 7.04518 15.9148 7.53356C16.4568 8.02193 16.7612 8.68431 16.7612 9.37498C16.7612 9.71696 16.6865 10.0556 16.5413 10.3716C16.396 10.6875 16.1832 10.9746 15.9148 11.2164C15.6465 11.4582 15.3279 11.65 14.9773 11.7809C14.6267 11.9118 14.2509 11.9791 13.8714 11.9791ZM13.8714 2.08331C11.7254 2.08331 9.66723 2.85154 8.14976 4.21899C6.63229 5.58645 5.77979 7.44111 5.77979 9.37498C5.77979 14.8437 13.8714 22.9166 13.8714 22.9166C13.8714 22.9166 21.963 14.8437 21.963 9.37498C21.963 7.44111 21.1105 5.58645 19.593 4.21899C18.0755 2.85154 16.0174 2.08331 13.8714 2.08331Z" fill="#4F59C0"/>
</g>
</svg>
