<svg width="171" height="46" viewBox="0 0 171 46" fill="none" xmlns="http://www.w3.org/2000/svg">
<g id="Social media icons">
<path id="Vector" d="M45.1649 22.5795C45.1649 10.1045 35.0574 -0.00292969 22.5824 -0.00292969C10.1075 -0.00292969 0 10.1045 0 22.5795C0 33.8507 8.25807 43.1933 19.0539 44.8888V29.1075H13.3173V22.5795H19.0539V17.6041C19.0539 11.9448 22.4231 8.81879 27.5833 8.81879C30.0547 8.81879 32.6389 9.25951 32.6389 9.25951V14.8141H29.7906C26.986 14.8141 26.1109 16.5551 26.1109 18.3407V22.5795H32.3739L31.3723 29.1075H26.1109V44.8888C36.9068 43.1933 45.1649 33.8507 45.1649 22.5795Z" fill="#656ED3"/>
<path id="Vector_2" d="M99.7871 7.78983C95.9718 3.96538 90.8907 1.86194 85.491 1.86194C74.3454 1.86194 65.276 10.9313 65.276 22.0769C65.276 25.6372 66.2048 29.1157 67.9714 32.1843L65.103 42.656L75.8206 39.8423C78.7709 41.454 82.0945 42.3009 85.4818 42.3009H85.491C96.6274 42.3009 105.897 33.2315 105.897 22.086C105.897 16.6862 103.602 11.6143 99.7871 7.78983ZM85.491 38.8953C82.4678 38.8953 79.5084 38.0849 76.9315 36.5551L76.3214 36.1909L69.9655 37.8572L71.6592 31.6562L71.2586 31.0188C69.574 28.3417 68.6907 25.2548 68.6907 22.0769C68.6907 12.8162 76.2303 5.27662 85.5001 5.27662C89.9892 5.27662 94.2052 7.02494 97.3741 10.2029C100.543 13.3808 102.492 17.5968 102.482 22.086C102.482 31.3557 94.7516 38.8953 85.491 38.8953ZM94.706 26.3111C94.2052 26.0561 91.7193 24.8359 91.2549 24.672C90.7905 24.499 90.4536 24.417 90.1167 24.927C89.7798 25.4369 88.8146 26.566 88.5141 26.912C88.2227 27.249 87.9222 27.2945 87.4214 27.0395C84.4529 25.5553 82.5042 24.3897 80.5465 21.0297C80.0275 20.1373 81.0655 20.2011 82.0307 18.2706C82.1946 17.9337 82.1127 17.6423 81.9852 17.3874C81.8577 17.1324 80.847 14.6465 80.4281 13.6358C80.0184 12.6523 79.5995 12.7889 79.2899 12.7707C78.9985 12.7525 78.6616 12.7525 78.3247 12.7525C77.9878 12.7525 77.4414 12.88 76.977 13.3808C76.5126 13.8907 75.2105 15.1109 75.2105 17.5968C75.2105 20.0827 77.0225 22.4866 77.2684 22.8235C77.5234 23.1604 80.8288 28.2597 85.9007 30.4542C89.106 31.8383 90.3626 31.9567 91.9652 31.7199C92.9395 31.5742 94.9519 30.4997 95.3708 29.316C95.7896 28.1322 95.7896 27.1215 95.6622 26.912C95.5438 26.6844 95.2069 26.5569 94.706 26.3111Z" fill="#656ED3"/>
<path id="Vector_3" d="M148.417 -0.00292969C135.942 -0.00292969 125.835 10.1045 125.835 22.5795C125.835 35.0545 135.942 45.1619 148.417 45.1619C160.892 45.1619 171 35.0545 171 22.5795C171 10.1045 160.892 -0.00292969 148.417 -0.00292969ZM159.508 15.4679L155.802 32.9328C155.529 34.1712 154.791 34.4717 153.763 33.8889L148.117 29.7276L145.394 32.35C145.094 32.6505 144.839 32.9055 144.256 32.9055L144.657 27.1597L155.119 17.7079C155.575 17.3072 155.019 17.0796 154.418 17.4802L141.488 25.6208L135.915 23.8816C134.704 23.4992 134.677 22.6706 136.17 22.0878L157.942 13.6922C158.953 13.328 159.836 13.9381 159.508 15.4679Z" fill="#656ED3"/>
</g>
</svg>
